<svg xmlns="http://www.w3.org/2000/svg" version="1.1" xmlns:xlink="http://www.w3.org/1999/xlink" xmlns:svgjs="http://svgjs.dev/svgjs" width="100%" height="100%" viewBox="0 0 1000 600"><rect width="1000" height="600" x="0" y="0" fill="#333333"/><g><rect width="333.3333333333333" height="333.3333333333333" rx="13.333333333333334" ry="13.333333333333334" y="170.66389823611826" fill="black" transform="matrix(0.8420816026961961,0,0,0.8420816026961961,0,15.940143458646787)" x="148.4416809082031"/><path d="M347.691158355451 283.7548771174295L279.7879643391605 283.7548771174295L279.7879643391605 303.12603369262894L258.3636437029952 303.12603369262894L258.3636437029952 283.7548771174295Q258.3636437029952 279.38074498754577 260.02997975247473 275.45295287091545Q261.69631580195426 271.52516075428514 264.642159889427 268.63882866857955Q267.55824797601616 265.7822525837575 271.4860400926464 264.05640453251084Q275.4138322092768 262.33055648126424 279.7879643391605 262.33055648126424L279.7879643391605 262.33055648126424L347.691158355451 262.33055648126424Q352.09504648621834 262.33055648126424 355.99308260196506 264.05640453251084Q359.92087471859537 265.7822525837575 362.80720680430096 268.63882866857955Q365.69353889000655 271.52516075428514 367.4193869412532 275.45295287091545Q369.14523499249987 279.38074498754577 369.14523499249987 283.7548771174295L369.14523499249987 283.7548771174295L369.14523499249987 311.1601539311909Q369.14523499249987 315.5640420619583 368.28231096687654 319.0157381644516Q367.4491429421368 322.4674342669448 365.6340268882395 325.23474234911623Q363.78915483345855 328.00205043128756 360.96233474952004 330.20399449667116Q358.1355146655816 332.40593856205487 354.05894254453347 334.39959062125354L354.05894254453347 334.39959062125354L279.7879643391605 369.24386765590566L279.7879643391605 390.87648029825596L350.3989544358553 390.87648029825596L350.3989544358553 371.6243477265907L371.85303107290406 371.6243477265907L371.85303107290406 412.3305569353048L258.3636437029952 412.3305569353048L258.3636437029952 372.9038557645839Q258.3636437029952 368.4999676338166 259.22656772861853 365.0482715313234Q260.1192477551254 361.5965754288301 261.9046078081392 358.8887793484258Q263.689967861153 356.151227267138 266.57629994685857 353.9195272008708Q269.4328760316806 351.65807113372 273.3011561465438 349.7834430780556L273.3011561465438 349.7834430780556L347.691158355451 314.8201420398692L347.691158355451 283.7548771174295Z " fill="darkred" transform="matrix(0.8420816026961961,0,0,0.8420816026961961,0,15.940143458646787)"/><path d="M648.90123604956 412.3305569353048L642.5036958595939 412.3305569353048L586.5624141984957 302.3821336705399L586.5624141984957 412.3305569353048L565.1083375614469 412.3305569353048L565.1083375614469 262.33055648126424L588.5263102568109 262.33055648126424L645.6578319532516 375.28433583526896L702.8786216523431 262.33055648126424L726.2073263450565 262.33055648126424L726.2073263450565 412.3305569353048L704.8722737115418 412.3305569353048L704.8722737115418 302.3821336705399L648.90123604956 412.3305569353048ZM809.7919328269845 262.33055648126424L831.2460094640334 262.33055648126424L889.0916751816796 412.3305569353048L867.6375985446308 412.3305569353048L854.3664221505618 377.8135959103719L786.6715201404562 377.8135959103719L773.3705877455035 412.3305569353048L751.9462671093384 412.3305569353048L809.7919328269845 262.33055648126424ZM820.5636051468343 290.2416853100462L794.8246643825524 356.35951927332303L846.0942539049313 356.35951927332303L820.5636051468343 290.2416853100462ZM914.8306159459615 390.87648029825596L914.8306159459615 283.7548771174295Q914.8306159459615 279.38074498754577 916.4969519954411 275.45295287091545Q918.1632880449207 271.52516075428514 921.1091321323934 268.63882866857955Q924.0252202189826 265.7822525837575 927.9530123356128 264.05640453251084Q931.8808044522431 262.33055648126424 936.2549365821268 262.33055648126424L936.2549365821268 262.33055648126424L1017.6375989986715 262.33055648126424Q1022.0414871294387 262.33055648126424 1025.9692792460692 264.05640453251084Q1029.897071362699 265.7822525837575 1032.8131594492884 268.63882866857955Q1035.7590035367612 271.52516075428514 1037.4253395862406 275.45295287091545Q1039.09167563572 279.38074498754577 1039.09167563572 283.7548771174295L1039.09167563572 283.7548771174295L1039.09167563572 303.12603369262894L1017.6375989986715 303.12603369262894L1017.6375989986715 283.7548771174295L936.2549365821268 283.7548771174295L936.2549365821268 390.87648029825596L1017.6375989986715 390.87648029825596L1017.6375989986715 371.6243477265907L1039.09167563572 371.6243477265907L1039.09167563572 390.87648029825596Q1039.09167563572 395.28036842902327 1037.4253395862406 399.2081605456535Q1035.7590035367612 403.1359526622838 1032.8131594492884 406.05204074887297Q1029.897071362699 408.96812883546215 1025.9692792460692 410.6642208858252Q1022.0414871294387 412.3305569353048 1017.6375989986715 412.3305569353048L1017.6375989986715 412.3305569353048L936.2549365821268 412.3305569353048Q931.8808044522431 412.3305569353048 927.9530123356128 410.6642208858252Q924.0252202189826 408.96812883546215 921.1091321323934 406.05204074887297Q918.1632880449207 403.1359526622838 916.4969519954411 399.2081605456535Q914.8306159459615 395.28036842902327 914.8306159459615 390.87648029825596L914.8306159459615 390.87648029825596Z " fill="white" transform="matrix(0.8420816026961961,0,0,0.8420816026961961,0,15.940143458646787)"/></g></svg>